<?xml version="1.0" encoding="UTF-8" standalone="no"?>
<svg width="8px" height="5px" viewBox="0 0 8 5" version="1.1" xmlns="http://www.w3.org/2000/svg" xmlns:xlink="http://www.w3.org/1999/xlink">
    <!-- Generator: Sketch 47.1 (45422) - http://www.bohemiancoding.com/sketch -->
    <title>Triangle Copy</title>
    <desc>Created with Sketch.</desc>
    <defs></defs>
    <g id="药企圈" stroke="none" stroke-width="1" fill="none" fill-rule="evenodd">
        <g id="Aa_直播活动列表" transform="translate(-352.000000, -84.000000)" fill="#666666">
            <g id="Group" transform="translate(318.000000, 79.000000)">
                <path d="M38.3904344,5.18767089 L41.350122,8.88728036 L41.350122,8.88728036 C41.5226268,9.10291133 41.4876661,9.41755751 41.2720351,9.59006229 C41.1833786,9.66098751 41.0732233,9.69962788 40.9596876,9.69962788 L35.0403124,9.69962788 L35.0403124,9.69962788 C34.76417,9.69962788 34.5403124,9.47577026 34.5403124,9.19962788 C34.5403124,9.08609213 34.5789528,8.97593688 34.649878,8.88728036 L37.6095656,5.18767089 L37.6095656,5.18767089 C37.7820704,4.97203992 38.0967166,4.93707923 38.3123475,5.10958401 C38.3411799,5.13264989 38.3673685,5.15883854 38.3904344,5.18767089 Z" id="Triangle-Copy" transform="translate(38.000009, 7.349814) scale(1, -1) translate(-38.000009, -7.349814) "></path>
            </g>
        </g>
    </g>
</svg>