<?xml version="1.0" encoding="UTF-8" standalone="no"?>
<svg width="14px" height="14px" viewBox="0 0 14 14" version="1.1" xmlns="http://www.w3.org/2000/svg" xmlns:xlink="http://www.w3.org/1999/xlink">
    <!-- Generator: Sketch 47.1 (45422) - http://www.bohemiancoding.com/sketch -->
    <title>Combined Shape</title>
    <desc>Created with Sketch.</desc>
    <defs></defs>
    <g id="药企圈" stroke="none" stroke-width="1" fill="none" fill-rule="evenodd">
        <g id="Aa_直播活动列表" transform="translate(-70.000000, -79.000000)" stroke="#7AA3C8">
            <g id="search" transform="translate(0.000000, 64.000000)">
                <g id="Group-2" transform="translate(70.000000, 15.000000)">
                    <path d="M13.4541897,13.2329982 L10.2266283,10.0054383 L10.5086772,9.65570418 C11.3093799,8.66285131 11.7529193,7.42927826 11.7529193,6.12645672 C11.7529193,3.01905053 9.23386755,0.5 6.12645964,0.5 C3.01905173,0.5 0.5,3.01905053 0.5,6.12645672 C0.5,9.2338629 3.01905173,11.7529134 6.12645964,11.7529134 C7.42927893,11.7529134 8.66285001,11.3093763 9.65570233,10.5086773 L10.0054361,10.2266298 L13.2329975,13.4541896 C13.294078,13.5152701 13.3931092,13.5152701 13.4541897,13.4541896 C13.5152701,13.3931093 13.5152701,13.2940786 13.4541897,13.2329982 Z" id="Combined-Shape"></path>
                </g>
            </g>
        </g>
    </g>
</svg>